Coordinates
version=1
nRows=12
nColumns=24
inDegrees=yes

Units are S.I. units (second, meters, Newtons, ...)
Angles are in degrees.

endheader
time	pelvis_tilt	pelvis_list	pelvis_rotation	pelvis_tx	pelvis_ty	pelvis_tz	hip_flexion_r	hip_adduction_r	hip_rotation_r	knee_angle_r	ankle_angle_r	subtalar_angle_r	mtp_angle_r	hip_flexion_l	hip_adduction_l	hip_rotation_l	knee_angle_l	ankle_angle_l	subtalar_angle_l	mtp_angle_l	lumbar_extension	lumbar_bending	lumbar_rotation
      1.29150000	     -3.50575081	      5.74506211	      1.03400593	      0.16302112	      0.99360134	      0.29697628	     22.05436529	     -7.19315770	     -0.75429682	    -70.66897308	     -4.31925604	    -11.15999470	      4.15155175	     11.77597853	     11.14399541	      2.09121246	     -9.54875784	     -0.96946913	    -12.37936938	     -0.61475298	      0.48337248	     -4.25652624	      2.43296504
      1.29566667	     -3.40135984	      5.69043353	      1.10834271	      0.16812999	      0.99439477	      0.29668922	     22.48713941	     -7.11299879	     -0.67918996	    -70.50487054	     -3.58317602	    -11.40937738	      3.95816648	     11.16168597	     11.10995080	      2.28198609	     -9.24590486	     -0.84753430	    -12.37800618	     -0.65463716	      0.35621772	     -4.19227101	      2.26715962
      1.29983333	     -3.36951620	      5.61311515	      1.19284892	      0.17316570	      0.99503598	      0.29641293	     22.99411003	     -7.00421920	     -0.60633304	    -70.29583174	     -2.83307725	    -11.57371075	      3.89127086	     10.66413544	     11.04909312	      2.46164752	     -9.01458864	     -0.69074074	    -12.32592994	     -0.66848151	      0.30481452	     -4.10618657	      2.22056138
      1.30400000	     -3.25295613	      5.53466947	      1.27904223	      0.17825133	      0.99581523	      0.29613060	     23.37584836	     -6.90154787	     -0.56024074	    -70.00341587	     -2.15201109	    -11.80448184	      3.49234677	     10.03699982	     10.98792080	      2.70319916	     -8.70947404	     -0.60625496	    -12.36425171	     -0.76984992	      0.16075594	     -4.02122813	      2.02818938
      1.30816667	     -3.22778731	      5.46928038	      1.35312175	      0.18326555	      0.99637497	      0.29586547	     23.87122518	     -6.80980250	     -0.48832012	    -69.69864975	     -1.43815692	    -11.96091450	      3.41524757	      9.55918536	     10.93483353	      2.85947591	     -8.49695792	     -0.41412874	    -12.30197753	     -0.78862819	      0.11909547	     -3.94671505	      2.00374108
      1.31233333	     -3.15599301	      5.39328188	      1.43312237	      0.18829426	      0.99699531	      0.29561747	     24.28726539	     -6.70507545	     -0.43188549	    -69.32015924	     -0.75743770	    -12.14929929	      3.32378463	      9.02042659	     10.86721019	      3.04384728	     -8.26438109	     -0.25452603	    -12.25730987	     -0.81388829	      0.02039774	     -3.86861471	      1.92927465
      1.31650000	     -3.11372609	      5.30796701	      1.52364623	      0.19331689	      0.99753966	      0.29534012	     24.71909852	     -6.60360280	     -0.40174640	    -68.88691725	     -0.11507461	    -12.31499107	      3.25925629	      8.52006501	     10.79107656	      3.22361376	     -8.04158130	     -0.09166034	    -12.22336072	     -0.83285680	     -0.02651361	     -3.75934979	      1.86288671
      1.32066667	     -3.01359428	      5.22366549	      1.61455483	      0.19834706	      0.99816305	      0.29506104	     25.06265089	     -6.50334632	     -0.37930893	    -68.38358134	      0.45035534	    -12.53293908	      2.73940583	      7.92670564	     10.71686938	      3.49781181	     -7.75736109	     -0.01393393	    -12.31439702	     -1.00905734	     -0.16248325	     -3.65905130	      1.61858830
      1.32483333	     -2.98655421	      5.15144742	      1.69386205	      0.20332843	      0.99860409	      0.29482637	     25.49161165	     -6.41018926	     -0.33468994	    -67.86138060	      1.08352407	    -12.66973542	      2.67195902	      7.46789786	     10.64672622	      3.64578175	     -7.57794218	      0.19479636	    -12.24603676	     -1.03068020	     -0.20096773	     -3.59176877	      1.61614397
      1.32900000	     -2.93560236	      5.07349972	      1.77667581	      0.20831484	      0.99905837	      0.29459287	     25.87144268	     -6.31339100	     -0.30704054	    -67.27656474	      1.65759167	    -12.82709605	      2.59896207	      6.97398179	     10.56878145	      3.81363466	     -7.37723460	      0.37024386	    -12.19732959	     -1.05586871	     -0.27261610	     -3.50962274	      1.56225258
      1.33316667	     -2.87426289	      4.99656374	      1.86044222	      0.21330601	      0.99951104	      0.29435737	     26.21947534	     -6.22155273	     -0.28763352	    -66.63346962	      2.19587315	    -12.98843885	      2.51692968	      6.46393918	     10.49015110	      3.99203852	     -7.16537797	      0.53533722	    -12.16499592	     -1.08570342	     -0.35568183	     -3.42316955	      1.48131043
      1.33733333	     -2.80934053	      4.91735708	      1.94282817	      0.21828859	      0.99993042	      0.29413230	     26.54703217	     -6.12827055	     -0.27494980	    -65.93892786	      2.69444517	    -13.14487708	      2.42999596	      5.95368349	     10.40609685	      4.17029756	     -6.95775383	      0.70263202	    -12.13991087	     -1.11835264	     -0.44426585	     -3.33397176	      1.39454861
